<svg width="189" height="153" viewBox="0 0 189 153" fill="none" xmlns="http://www.w3.org/2000/svg">
<g clip-path="url(#clip0_28_847)">
<path d="M5.40781 79.9962C3.042 76.1355 -0.49416 72.6007 0.0575827 68.2219C6.54474 68.9657 12.6975 67.3863 18.6413 64.6454C24.585 61.9045 30.1024 58.3196 35.6617 54.8182C37.8519 53.4394 40.0338 52.0857 42.2073 50.8322C45.6516 48.8517 49.0707 46.654 52.5734 44.7236C57.5893 41.966 62.7138 39.7098 68.3399 39.2752C69.3514 39.2 70.3796 39.1833 71.4079 39.2C78.3465 39.3421 85.5358 41.1972 91.6384 38.0886L92.0146 37.8881C95.4672 35.9912 97.9919 32.7572 100.96 30.15C103.093 28.3051 105.416 26.6917 107.89 25.3367C112.387 22.8298 117.269 20.8242 121.884 18.4594C123.061 17.8458 124.18 17.127 125.228 16.3118L126.014 15.685L126.189 15.5346L126.758 15.0499L127.117 14.7324L127.485 14.3981L127.769 14.1307L128.229 13.6962L128.279 13.6461L129.015 12.9191L129.307 12.6266L129.817 12.1085L130.118 11.7993L131.656 10.2199C132.258 9.6099 132.877 9.00824 133.512 8.42329L134.114 7.88848L134.29 7.73806L134.775 7.3286L135.009 7.1364L135.485 6.76872L135.719 6.58488L136.438 6.06677C136.661 5.91458 136.896 5.78045 137.14 5.66567L135.636 1.85513L140.133 0L202.154 150.458L197.657 152.313L162.17 66.2415L161.919 66.4922C153.698 74.5967 143.632 80.5843 132.584 83.9404H132.518C126.34 85.8039 119.426 87.1242 114.226 90.6255C112.383 91.8235 110.78 93.357 109.503 95.1464C108.283 96.8845 107.43 98.865 106.118 100.536C105.875 100.845 105.608 101.146 105.34 101.43C103.819 102.934 102.137 104.265 100.324 105.4L99.4882 105.943C94.1024 109.734 88.491 113.194 82.6851 116.305C79.3352 118.049 75.842 119.502 72.2439 120.65C69.6273 121.486 66.9271 122.096 64.3105 122.923C62.5471 123.454 60.8348 124.142 59.1943 124.979C54.7637 127.294 51.3613 130.92 48.1428 134.789C45.3256 138.182 42.6504 141.767 39.5573 144.859C37.6262 146.789 34.6752 148.602 32.3261 147.474C32.1641 147.393 32.0077 147.301 31.858 147.199C31.9249 147.073 31.9918 146.948 32.0503 146.814C33.8978 142.945 31.6239 138.165 28.5643 135.057C28.2466 134.739 27.9206 134.422 27.5862 134.112C27.2518 133.803 26.6582 133.277 26.1734 132.859C23.5568 130.611 20.773 128.522 18.9589 125.622C17.5769 123.185 16.6373 120.523 16.1835 117.759C15.3475 113.823 14.7958 109.77 12.6557 106.419C11.2429 104.205 9.16134 102.316 7.63987 100.194C6.6766 98.9417 6.04411 97.4674 5.80071 95.9068C5.45797 93.1826 6.72027 90.5253 7.19678 87.8178C7.33622 87.0799 7.39231 86.3287 7.36398 85.5783C7.19552 83.582 6.52241 81.6612 5.40781 79.9962Z" fill="url(#paint0_linear_28_847)"/>
<path d="M196.034 151.094L200.463 149.27L139.468 1.34178L135.039 3.16645L196.034 151.094Z" fill="#D6D8E1"/>
<path d="M14.1605 105.909C16.2672 109.202 16.8189 113.188 17.6298 117.057C18.0776 119.774 19.0031 122.391 20.3634 124.787C22.1524 127.636 24.8861 129.7 27.4525 131.906C27.9206 132.307 28.3888 132.742 28.8402 133.135C29.2916 133.527 29.4923 133.745 29.8016 134.062C32.8111 137.112 35.0431 141.809 33.229 145.619C33.1705 145.744 33.112 145.87 33.0368 145.995C33.1839 146.095 33.3375 146.184 33.4966 146.263C35.8039 147.374 38.7047 145.586 40.6023 143.689C43.6453 140.647 46.2786 137.121 49.0456 133.786C52.2056 129.976 55.5579 126.416 59.9133 124.135C61.5216 123.313 63.2002 122.636 64.9291 122.112C67.4956 121.277 70.154 120.684 72.7288 119.873C76.2692 118.746 79.7065 117.317 83.0029 115.603C88.7105 112.545 94.2269 109.143 99.5217 105.416L100.308 104.882C102.09 103.766 103.745 102.458 105.24 100.979C105.507 100.695 105.766 100.402 106.001 100.102C107.288 98.4304 108.132 96.5084 109.344 94.8036C110.602 93.044 112.178 91.536 113.992 90.358C119.109 86.957 125.897 85.6534 131.974 83.8233H132.041C142.903 80.5233 152.8 74.636 160.882 66.6675C161.554 66.1096 162.055 65.3741 162.328 64.545C162.588 63.3667 161.952 62.2052 161.342 61.2024C160.629 59.988 159.935 58.7623 159.26 57.5256C156.175 51.9141 153.42 46.1272 151.009 40.1943C150.483 38.8991 149.973 37.5955 149.479 36.2835C148.214 32.941 147.061 29.551 146.019 26.1137C145.676 24.9689 145.341 23.8324 145.024 22.6792C144.965 22.462 144.907 22.228 144.84 21.9773C143.452 16.3367 141.596 3.32574 135.887 7.2282C134.184 8.43746 132.602 9.80874 131.163 11.3229C130.051 12.451 128.965 13.6125 127.819 14.7323C126.888 15.6506 125.902 16.5129 124.868 17.3144C123.82 18.1169 122.701 18.8218 121.525 19.4202C116.994 21.7433 112.187 23.6904 107.764 26.1806C105.332 27.512 103.049 29.0975 100.951 30.9103C98.0337 33.4841 95.5508 36.6596 92.1568 38.5231L91.7806 38.7153C85.7783 41.7737 78.7144 39.9437 71.8928 39.8016C70.8813 39.8016 69.8698 39.8016 68.875 39.8768C63.3408 40.303 58.2748 42.5258 53.376 45.2333C49.9318 47.1385 46.5712 49.2945 43.1855 51.2416C41.0454 52.47 38.9053 53.7986 36.7485 55.1607C31.2729 58.6036 25.7387 62.2219 20.029 64.8208C14.3194 67.4196 8.13313 69.0742 1.75466 68.3388C1.21128 72.6424 4.68893 76.1187 7.01294 79.9208C8.12246 81.5519 8.7985 83.4384 8.97745 85.4027C9.00449 86.1392 8.94842 86.8764 8.81028 87.6004C8.34213 90.2661 7.13832 92.8733 7.43927 95.5557C7.68367 97.0771 8.30436 98.5133 9.24497 99.734C10.7246 101.873 12.7477 103.737 14.1605 105.909Z" fill="#E6E8ED"/>
<path d="M124.852 17.3228L129.516 28.3951L144.831 21.944C143.452 16.3368 141.596 3.32581 135.887 7.22827C131.748 10.0527 128.948 14.1808 124.852 17.3228Z" fill="#5A5773"/>
<path d="M92.1652 38.5315L94.1548 43.2612L111.827 35.824L107.764 26.1807C105.332 27.5121 103.049 29.0975 100.951 30.9104C98.017 33.4925 95.5676 36.668 92.1652 38.5315Z" fill="#5A5773"/>
<path d="M53.3927 45.25L58.8182 58.119L76.4906 50.6817L71.9095 39.8184C70.898 39.8184 69.8864 39.8184 68.8916 39.8936C63.3575 40.3114 58.2915 42.5342 53.3927 45.25Z" fill="#5A5773"/>
<path d="M20.0208 64.8041L23.465 72.9767L41.1374 65.5395L36.7569 55.144C31.2896 58.6203 25.7472 62.2303 20.0208 64.8041Z" fill="#5A5773"/>
<path d="M119.269 53.4567L136.945 46.022L129.507 28.3528L111.831 35.7875L119.269 53.4567Z" fill="#5A5773"/>
<path d="M83.9207 68.3241L101.597 60.8894L94.1593 43.2202L76.4831 50.6549L83.9207 68.3241Z" fill="#5A5773"/>
<path d="M48.576 83.1994L66.2522 75.7646L58.8146 58.0954L41.1384 65.5302L48.576 83.1994Z" fill="#5A5773"/>
<path d="M8.81028 87.6172L13.2326 98.1129L30.905 90.6756L23.4649 73.0101L7.01294 79.9293C8.12246 81.5603 8.7985 83.4468 8.97746 85.4111C9.00512 86.1504 8.94905 86.8905 8.81028 87.6172Z" fill="#5A5773"/>
<path d="M136.957 46.0606L144.397 63.7262L159.26 57.4755C156.175 51.8641 153.42 46.0771 151.009 40.1443L136.957 46.0606Z" fill="#5A5773"/>
<path d="M109.037 78.5597L126.713 71.125L119.275 53.4558L101.599 60.8905L109.037 78.5597Z" fill="#5A5773"/>
<path d="M73.6811 93.4303L91.3573 85.9956L83.9197 68.3264L66.2435 75.7611L73.6811 93.4303Z" fill="#5A5773"/>
<path d="M38.3364 108.314L56.0126 100.879L48.5749 83.2099L30.8987 90.6446L38.3364 108.314Z" fill="#5A5773"/>
<path d="M126.716 71.1634L132.041 83.8067C138.189 81.9379 144.052 79.2329 149.463 75.7678L144.388 63.7178L126.716 71.1634Z" fill="#5A5773"/>
<path d="M91.3292 86.0378L98.7694 103.703L105.215 100.987C105.482 100.703 105.741 100.411 105.975 100.11C107.263 98.4388 108.107 96.5168 109.319 94.8121C110.577 93.0524 112.153 91.5444 113.967 90.3664L109.018 78.6006L91.3292 86.0378Z" fill="#5A5773"/>
<path d="M63.4576 118.533L81.1338 111.099L73.6961 93.4294L56.02 100.864L63.4576 118.533Z" fill="#5A5773"/>
<path d="M20.6643 115.778L27.4525 131.906C27.9206 132.307 28.3887 132.742 28.8401 133.135L45.777 126.007L38.3368 108.341L20.6643 115.778Z" fill="#5A5773"/>
<path d="M17.6298 117.057L20.6643 115.778L13.2242 98.1128L9.23657 99.7841C10.7162 101.873 12.7644 103.728 14.1521 105.901C16.2671 109.202 16.8189 113.188 17.6298 117.057Z" fill="#5A5773"/>
<path d="M81.1304 111.141L83.0113 115.62C88.7189 112.562 94.2353 109.16 99.5301 105.433L98.8029 103.703L81.1304 111.141Z" fill="#5A5773"/>
<path d="M45.7854 126.015L49.0624 133.795C52.2224 129.984 55.5746 126.424 59.9301 124.143C61.5384 123.321 63.217 122.644 64.9459 122.121L63.4495 118.578L45.7854 126.015Z" fill="#5A5773"/>
</g>
<defs>
<linearGradient id="paint0_linear_28_847" x1="202.137" y1="76.1606" x2="-0.000939774" y2="76.1606" gradientUnits="userSpaceOnUse">
<stop stop-color="#808080" stop-opacity="0.25"/>
<stop offset="0.54" stop-color="#808080" stop-opacity="0.12"/>
<stop offset="1" stop-color="#808080" stop-opacity="0.1"/>
</linearGradient>
<clipPath id="clip0_28_847">
<rect width="202.154" height="152.313" fill="white"/>
</clipPath>
</defs>
</svg>
