<svg width="365" height="187" viewBox="0 0 365 187" fill="none" xmlns="http://www.w3.org/2000/svg">
<g clip-path="url(#clip0_31_1282)">
<path d="M348.799 103.384L347.655 112.51L344.818 135.176H287.81C288.255 130.096 288.864 122.783 289.514 114.889C289.578 114.101 289.645 113.308 289.709 112.51C291.34 92.6668 293.124 70.2125 293.124 70.2125L300.618 71.612L315.159 74.322L321.084 75.4258L336.951 78.3872C344.862 79.8605 350.304 91.3414 348.799 103.384Z" fill="#F2F2F2"/>
<path d="M305.678 33.4935L312.688 45.7897L299.214 55.3608L293.466 40.2465L305.678 33.4935Z" fill="#FFB6B6"/>
<path d="M296.753 45.1261C306.345 45.1261 314.12 37.3326 314.12 27.7188C314.12 18.1049 306.345 10.3114 296.753 10.3114C287.161 10.3114 279.386 18.1049 279.386 27.7188C279.386 37.3326 287.161 45.1261 296.753 45.1261Z" fill="#FFB6B6"/>
<path d="M295.506 31.6104C294.127 29.5068 294.668 28.4065 293.514 27.6335C293.514 27.6334 293.049 27.3224 289.724 27.145C288.98 21.7748 288.05 21.1236 288.05 21.1235C286.979 20.373 285.39 20.6168 284.401 21.0759C282.31 22.0468 282.552 24.144 281.144 24.5454C279.199 25.0998 275.66 21.9744 275.311 18.3964C275.027 15.4778 276.903 12.6432 277.647 12.7931C278.385 12.9418 280.151 10.6816 281.105 10.7165C281.756 10.7403 284.417 9.5809 285.133 9.67154C285.915 9.77054 288.493 11.1189 288.6 10.8108C289.347 8.67014 289.127 8.07619 289.761 7.46379C290.883 6.37862 292.719 7.1343 295.6 7.54C301.526 8.37473 302.56 6.41608 305.598 7.74366C307.132 8.4143 308.416 10.2229 310.921 13.8128C314.424 18.8331 316.175 21.3433 316.187 24.2711C316.198 27.2569 314.755 27.0674 314.122 31.4876C313.417 36.408 314.915 38.658 313.278 40.2565C312.013 41.492 309.441 41.7853 308.089 40.701C305.776 38.8445 308.804 34.3649 306.243 31.0921C304.672 29.0831 301.511 28.1892 300.063 29.1823C298.426 30.3051 299.328 33.6009 298.177 33.9135C297.191 34.1811 295.746 31.977 295.506 31.6104Z" fill="#2F2E41"/>
<path d="M335.962 100.17C335.478 108.472 333.554 111.093 332.88 120.897C332.732 123.05 332.644 125.548 332.644 128.528C332.644 129.288 332.648 130.022 332.648 130.74C332.648 132.267 332.619 133.711 332.442 135.176C332.307 136.345 332.076 137.522 331.692 138.763H294.287C294.283 138.755 294.283 138.746 294.279 138.738C294.06 137.784 293.921 136.872 293.816 135.999C293.782 135.72 293.752 135.446 293.727 135.176C293.694 134.859 293.664 134.547 293.635 134.239C293.521 133.01 293.407 131.85 293.138 130.74C292.776 129.208 292.119 127.764 290.771 126.371C290.22 125.802 289.668 125.359 289.129 124.97C289.024 124.898 288.923 124.827 288.817 124.755C287.327 123.729 285.916 122.991 284.695 120.897C284.674 120.868 284.657 120.834 284.64 120.805C284.43 120.437 283.882 119.475 283.486 118.192C283.07 116.858 282.817 115.183 283.272 113.469C284.354 109.409 288.363 109.004 291.639 104.901C291.992 104.458 292.342 103.969 292.675 103.424C294.157 101.01 294.557 98.8829 295.028 96.3547C295.104 95.9452 295.172 95.54 295.226 95.1476C295.269 94.8521 295.306 94.5609 295.336 94.2739C295.597 91.8639 295.471 89.7874 295.163 87.9304C294.161 81.8485 291.205 78.0838 293.294 72.6265C293.951 70.9131 294.881 69.6257 295.82 68.5242C297.807 66.1901 299.85 64.675 299.496 61.6617C299.138 58.6228 296.839 58.2048 296.582 55.5501C296.452 54.2081 296.89 52.7941 297.711 51.4055V51.4014C300.338 46.9317 306.899 42.8166 311.067 42.9475C311.838 42.9687 312.52 43.1416 313.089 43.4751C315.148 44.6905 314.289 47.3453 317.443 51.068C319.788 53.8324 322.441 54.9382 323.448 55.4615C327.435 57.5466 330.678 63.6959 332.88 71.5588C332.896 71.6179 332.913 71.6769 332.93 71.7404C334.29 76.6657 335.251 82.258 335.726 87.9304C335.928 90.3319 336.046 92.7462 336.071 95.1349C336.093 97.0426 336.05 98.6972 335.962 100.17Z" fill="#52CBBE"/>
<path d="M307.952 128.613L307.189 130.74L306.709 132.073L305.598 135.176L304.309 138.763H296.026L297.416 135.176L298.06 133.504L299.13 130.74L300.924 126.097L307.952 128.613Z" fill="#FFB6B6"/>
<path d="M333.01 70.8328C332.989 71.1073 332.96 71.4111 332.93 71.7404C332.602 75.0915 331.827 81.089 330.694 87.9305C330.096 91.539 329.397 95.3841 328.61 99.2036C326.917 107.446 324.812 115.563 322.433 120.897C322.007 121.86 321.57 122.729 321.123 123.497C320.782 124.084 320.424 124.662 320.049 125.232C318.837 127.102 317.476 128.874 316.066 130.529C316.011 130.601 315.948 130.668 315.885 130.74C315.657 131.01 315.421 131.276 315.186 131.542C314.032 132.846 312.853 134.061 311.712 135.176C310.322 136.535 308.983 137.738 307.783 138.763H294.334L294.279 138.738L292.342 137.877C292.342 137.877 292.893 137.227 293.816 135.999C294.005 135.75 294.207 135.475 294.426 135.176C294.696 134.808 294.987 134.403 295.298 133.964C295.946 133.044 296.683 131.964 297.475 130.74C299.008 128.372 300.755 125.46 302.52 122.088C302.722 121.695 302.928 121.298 303.134 120.897C303.138 120.885 303.147 120.872 303.151 120.859C303.501 120.176 303.846 119.471 304.191 118.753C307.118 112.65 307.956 107.586 308.196 105.944C308.533 103.623 309 100.377 308.874 96.8063C308.789 94.4514 308.448 91.9611 307.636 89.4879V89.4837C307.467 88.9646 307.278 88.4455 307.063 87.9305C306.68 87.0062 306.225 86.0945 305.686 85.1956C303.307 81.2367 301.374 81.0721 299.837 76.7585C299.382 75.4798 298.351 72.593 298.666 69.5456V69.5415C298.705 69.1658 298.768 68.786 298.852 68.406V68.4019C298.873 68.2964 298.903 68.1867 298.932 68.0812C299.172 67.1485 299.568 66.224 300.17 65.3461C301.345 63.6412 302.949 62.6281 304.385 62.0246L304.389 62.0203C306.048 61.3283 307.48 61.1805 307.758 61.1552C313.91 60.6066 318.681 65.7894 321.287 68.6214C322.294 69.7144 323.216 70.6305 324.058 71.3773C330.614 77.2441 332.412 73.496 332.88 71.5589C332.951 71.2592 332.989 71.0018 333.01 70.8328Z" fill="#52CBBE"/>
<path d="M333.031 70.6135C333.031 70.6345 333.027 70.7063 333.01 70.8246C333.019 70.7611 333.023 70.6978 333.027 70.6387C333.027 70.6261 333.027 70.6176 333.031 70.6135Z" fill="#52CBBE"/>
<path d="M299.589 159.672H73.8668C71.7696 159.672 70.0601 161.381 70.0601 163.483C70.0601 165.589 71.7696 167.298 73.8668 167.298H299.589C301.686 167.298 303.391 165.589 303.391 163.483C303.391 161.381 301.686 159.672 299.589 159.672Z" fill="#E6E6E6"/>
<path d="M249.497 179.374H123.955C121.858 179.374 120.152 181.083 120.152 183.185C120.152 185.286 121.858 187 123.955 187H249.497C251.594 187 253.303 185.286 253.303 183.185C253.303 181.083 251.594 179.374 249.497 179.374Z" fill="#E6E6E6"/>
<path d="M98.984 34.3026L113.21 28.3019L119.311 40.8393L104.362 46.9551L98.984 34.3026Z" fill="#FFB6B6"/>
<path opacity="0.1" d="M98.984 34.3026L113.21 28.3019L119.311 40.8393L104.362 46.9551L98.984 34.3026Z" fill="black"/>
<path d="M101.006 29.525L115.04 45.7319C115.04 45.7319 105.278 76.6168 95.5148 79.3689C85.7521 82.121 67.7521 95.5758 67.7521 95.5758L45.1758 80.8978L56.1588 64.6909C56.1588 64.6909 82.7012 28.3019 89.7182 28.3019C96.7352 28.3019 101.006 29.525 101.006 29.525Z" fill="#52CBBE"/>
<path d="M82.0453 135.176H49.3768L47.3113 132.408L38.8788 121.109L36.9384 118.51C36.9384 118.51 29.6164 105.055 31.1418 92.8237C32.6673 80.5921 48.5317 77.84 48.5317 77.84H49.1846L68.6063 94.9459L67.447 110.865L73.5975 121.109L82.0453 135.176Z" fill="#2F2E41"/>
<path d="M56.0673 135.176H47.3113V122.18L56.0673 135.176Z" fill="#2F2E41"/>
<path d="M244.921 115.446L243.832 121.109L241.129 135.176H186.827C187.251 132.023 187.831 127.485 188.45 122.586C188.511 122.097 188.575 121.605 188.636 121.109C190.189 108.795 191.888 94.8602 191.888 94.8602L199.027 95.7287L212.878 97.4106L218.522 98.0955L233.636 99.9333C241.172 100.848 246.355 107.973 244.921 115.446Z" fill="#F2F2F2"/>
<path d="M321.769 135.176H292.316C292.765 134.647 293.018 134.341 293.018 134.341L301.847 132.879L320.039 129.87C320.039 129.87 320.869 132.02 321.769 135.176Z" fill="#2F2E41"/>
<path d="M196.838 40.4188L209.646 58.5749L187.304 59.2437L184.906 42.1812L196.838 40.4188Z" fill="#A0616A"/>
<path opacity="0.1" d="M196.838 40.4188L209.646 58.5749L187.304 59.2437L184.906 42.1812L196.838 40.4188Z" fill="black"/>
<path d="M133.671 78.0369C132.028 73.2849 128.25 70.2829 125.233 71.3318C122.215 72.3806 121.103 77.0825 122.747 81.8359C123.378 83.7438 124.456 85.4724 125.89 86.8773L133.107 106.924L142.421 103.328L134.317 83.948C134.576 81.9542 134.355 79.9273 133.671 78.0369Z" fill="#A0616A"/>
<path d="M220.373 68.7855L220.356 87.2888L218.638 94.1233L215.105 108.18L212.533 121.109L210.617 130.742L209.934 134.182C209.418 134.527 208.906 134.858 208.393 135.176H163.768C161.233 133.65 159.815 132.463 159.815 132.463C159.815 132.463 160.516 131.803 161.319 130.742C162.673 128.95 164.312 126.014 163.308 123.21C163.097 122.623 163.042 121.907 163.106 121.109C163.515 115.844 169.025 106.939 169.025 106.939L167.884 93.7227L167.384 87.931L170.911 59.6911L182.41 52.9913L184.395 52.7988L203.991 51.7377L212.09 52.2055L212.459 52.3064L220.373 68.7855Z" fill="#CCCCCC"/>
<path d="M221.243 135.176H211.481L211.051 130.742L211.041 130.653L213.806 130.464L220.996 129.971L221.121 132.625L221.219 134.662L221.243 135.176Z" fill="#FFB6B6"/>
<path d="M223.647 73.2593L227.748 97.377L224.401 121.109L223.879 124.803L222.958 131.326L222.674 133.332L222.684 133.549L222.754 135.176H211.16L210.733 130.742L210.697 130.344L209.824 121.262L209.809 121.109L207.957 101.851L211.588 87.9311L211.856 86.9067V86.9036L213.436 63.0703L212.212 52.2392L212.2 52.1383C212.224 52.1536 212.246 52.1689 212.27 52.1842C212.334 52.2239 212.398 52.2637 212.459 52.3065C219.586 56.8383 223.833 64.7889 223.647 73.2593Z" fill="#CCCCCC"/>
<path d="M175.065 64.3126L170.607 59.6908C170.607 59.6908 161.063 64.0032 160.587 66.3957C160.112 68.7882 143.261 103.927 143.261 103.927L135.93 84.3022L126.388 90.6881C126.388 90.6881 134.044 121.157 141.205 122.588C148.366 124.018 172.366 86.5245 172.366 86.5245L175.065 64.3126Z" fill="#CCCCCC"/>
<path d="M356.086 120.897H8.91021C3.99619 120.897 0 124.907 0 129.832C0 134.758 3.99619 138.763 8.91021 138.763H356.086C361 138.763 365 134.758 365 129.832C365 124.907 361 120.897 356.086 120.897Z" fill="#E6E6E6"/>
<path d="M218.341 93.6713L217.667 125.242C217.601 128.298 215.111 130.742 212.061 130.742H154.119C151.141 130.742 148.683 128.409 148.52 125.429L146.798 93.8577C146.623 90.6382 149.18 87.931 152.397 87.931H212.736C215.879 87.931 218.409 90.5211 218.341 93.6713Z" fill="#3F3D56"/>
<path d="M124.803 41.9236C132.459 41.9236 138.666 35.7026 138.666 28.0287C138.666 20.3547 132.459 14.1338 124.803 14.1338C117.147 14.1338 110.94 20.3547 110.94 28.0287C110.94 35.7026 117.147 41.9236 124.803 41.9236Z" fill="#FFB6B6"/>
<path d="M101.617 64.3852L103.142 80.8979L113.515 122.791L104.553 125.939L89.4131 80.2863L87.322 61.9388L101.617 64.3852Z" fill="#FFB6B6"/>
<path d="M97.4903 93.6713L96.8153 125.242C96.75 128.298 94.2595 130.742 91.2097 130.742H33.2675C30.2898 130.742 27.8314 128.409 27.6689 125.429L25.947 93.8577C25.7714 90.6382 28.3286 87.931 31.5455 87.931H91.8847C95.0283 87.931 97.5576 90.5211 97.4903 93.6713Z" fill="#3F3D56"/>
<path d="M115.167 130.955C121.213 130.955 126.115 128.782 126.115 126.101C126.115 123.421 121.213 121.248 115.167 121.248C109.12 121.248 104.218 123.421 104.218 126.101C104.218 128.782 109.12 130.955 115.167 130.955Z" fill="#FFB6B6"/>
<path d="M80.108 66.9098L86.3623 33.5004C86.3623 33.5004 103.752 31.054 104.362 36.8641C104.972 42.6741 103.926 71.0684 103.926 71.0684L80.108 66.9098Z" fill="#52CBBE"/>
<path d="M119.207 30.2134C119.207 30.2134 127.782 27.1457 131.4 25.4951C135.017 23.8446 142.204 35.3571 142.363 29.2769C142.523 23.1968 140.04 20.6471 140.04 20.6471C140.04 20.6471 139.42 7.34589 126.05 9.00885C126.05 9.00885 128.991 2.35413 119.338 1.3251C109.685 0.296068 94.6669 23.6608 96.0118 27.1525C97.3568 30.6443 98.9691 33.531 95.1533 37.2645C91.3375 40.9979 84.1923 62.0684 89.6286 67.7384C95.065 73.4083 95.4217 75.8687 91.697 79.3961C87.9722 82.9235 79.1679 90.5934 88.6874 91.9249C98.2069 93.2565 87.8165 92.2619 94.9134 86.005C102.01 79.7481 112.366 80.0037 108.499 69.9649C104.633 59.9262 111.351 45.5408 110.51 43.3584C109.669 41.1761 112.393 27.3182 112.393 27.3182C112.393 27.3182 118.733 26.3846 119.207 30.2134Z" fill="#2F2E41"/>
<path d="M189.989 46.9905C198.324 46.9905 205.08 40.2185 205.08 31.8649C205.08 23.5112 198.324 16.7393 189.989 16.7393C181.655 16.7393 174.899 23.5112 174.899 31.8649C174.899 40.2185 181.655 46.9905 189.989 46.9905Z" fill="#A0616A"/>
<path d="M191.194 11.5295C190.757 11.785 190.172 11.3985 190.032 10.9115C189.892 10.4245 190.055 9.9075 190.217 9.42734L191.031 7.01015C191.609 5.29582 192.222 3.52159 193.472 2.21677C195.36 0.247348 198.36 -0.253663 201.06 0.109302C204.528 0.575422 207.95 2.45765 209.563 5.57016C211.175 8.68267 210.489 13.0257 207.575 14.9676C211.728 19.7383 213.175 25.0551 212.947 31.3821C212.718 37.7091 205.839 43.5321 201.353 47.9892C200.351 47.3806 199.44 44.528 199.991 43.4917C200.542 42.4554 199.753 41.2548 200.435 40.3003C201.117 39.3458 201.688 40.8657 200.998 39.9166C200.563 39.3177 202.262 37.9399 201.615 37.5814C198.486 35.8476 197.445 31.938 195.479 28.9441C193.109 25.333 189.051 22.8875 184.758 22.4817C182.392 22.2583 179.894 22.663 177.955 24.0394C176.017 25.4158 174.761 27.8753 175.211 30.2135C174.047 29.0286 173.467 27.292 173.686 25.6434C173.904 23.9947 174.916 22.4702 176.349 21.6312C175.478 18.7437 176.224 15.4223 178.246 13.1879C180.268 10.9534 188.47 11.334 191.422 11.9221L191.194 11.5295Z" fill="#2F2E41"/>
<path d="M191.652 22.5695C195.562 22.9925 198.385 26.387 200.769 29.5218C202.142 31.3287 203.582 33.324 203.547 35.5955C203.512 37.8921 201.98 39.862 201.248 42.0384C200.051 45.5959 201.218 49.8285 204.067 52.2661C201.252 52.8015 198.209 50.686 197.723 47.8559C197.157 44.5613 199.649 41.3815 199.354 38.0516C199.094 35.1179 196.787 32.8601 194.826 30.6666C192.865 28.473 191.024 25.5623 191.926 22.7593L191.652 22.5695Z" fill="#2F2E41"/>
<path d="M250.102 122.809C246.229 125.017 244.227 128.809 245.629 131.279C247.031 133.749 251.306 133.961 255.18 131.752C256.74 130.891 258.071 129.668 259.062 128.186L275.352 118.624L270.713 111.057L255.146 121.287C253.367 121.383 251.638 121.905 250.102 122.809Z" fill="#FFB6B6"/>
<path d="M305.259 52.69C304.772 52.4966 300.5 50.8752 296.6 53.0159C292.121 55.4749 291.429 61.0883 291.186 63.0572C290.626 67.6053 292.277 68.6247 292.626 73.2291C293.278 81.8433 294.998 72.0161 292.251 75.9482C291.301 77.3092 281.591 98.4008 276.236 102.532C265.821 110.567 259.207 116.225 259.207 116.225L266.757 124.446C266.757 124.446 278.688 121.26 289.233 114.397C300.05 107.357 305.459 103.837 309.643 96.9509C310.003 96.358 318.625 81.6826 313.995 65.4551C312.939 61.7537 311.004 54.9719 305.259 52.69Z" fill="#52CBBE"/>
<path d="M344.246 93.6713L343.571 125.242C343.505 128.298 341.015 130.742 337.965 130.742H280.023C277.045 130.742 274.587 128.409 274.424 125.429L272.702 93.8577C272.527 90.6382 275.084 87.931 278.301 87.931H338.64C341.784 87.931 344.313 90.5211 344.246 93.6713Z" fill="#3F3D56"/>
</g>
<defs>
<clipPath id="clip0_31_1282">
<rect width="365" height="187" fill="white"/>
</clipPath>
</defs>
</svg>
